# xmcd
# 
# Track frame offsets:
#	150
#	15007
#	31068
#	44006
#	62375
#	77596
#	102179
#	111784
#	133194
#	150484
#	163030
#	185036
#	198025
#	221415
#
# Disc length: 3132 seconds
#
# Revision: 1
# Processed by: cddbd v1.4PL0 Copyright (c) Steve Scherf et al.
# Submitted via: Audio-CD-Archiv 2.10.446
#
DISCID=a80c3a0e
DTITLE=Texicali Rose - Ofrenda
DYEAR=1900
DGENRE=country
TTITLE0=Tu Chinampa
TTITLE1=Yo Tengo Frio
TTITLE2=Si Acaso Vuelves
TTITLE3=Por un Amor
TTITLE4=Pelea de Gallos
TTITLE5=My Weary Bones
TTITLE6=La Rielera
TTITLE7=Corina, Corina
TTITLE8=Dichosa
TTITLE9=La Tequilera
TTITLE10=Spanish Harlem
TTITLE11=Querida Rosa
TTITLE12=Since I Met You Baby
TTITLE13=Quien te lo Dijo
EXTD=
EXTT0=
EXTT1=
EXTT2=
EXTT3=
EXTT4=
EXTT5=
EXTT6=
EXTT7=
EXTT8=
EXTT9=
EXTT10=
EXTT11=
EXTT12=
EXTT13=
PLAYORDER=
